<?xml version="1.0" encoding="utf-8"?>
<!-- Generator: Adobe Illustrator 26.2.1, SVG Export Plug-In . SVG Version: 6.00 Build 0)  -->
<svg version="1.1" id="Layer_1" xmlns="http://www.w3.org/2000/svg" xmlns:xlink="http://www.w3.org/1999/xlink" x="0px" y="0px"
	 viewBox="0 0 500 500" style="enable-background:new 0 0 500 500;" xml:space="preserve">
<style type="text/css">
	.st0{fill-rule:evenodd;clip-rule:evenodd;fill:#C596FF;}
</style>
<path class="st0" d="M250,0c137.98,0,250,112.02,250,250S387.98,500,250,500S0,387.98,0,250S112.02,0,250,0z M250,93.75
	c-42.43,0-47.76,0.18-64.42,0.94c-16.63,0.76-27.99,3.4-37.93,7.26c-10.27,3.99-18.99,9.34-27.67,18.02s-14.03,17.4-18.02,27.67
	c-3.86,9.94-6.5,21.3-7.26,37.93c-0.76,16.67-0.94,21.99-0.94,64.42s0.18,47.76,0.94,64.42c0.76,16.63,3.4,27.99,7.26,37.93
	c3.99,10.27,9.34,18.99,18.02,27.68c8.69,8.69,17.4,14.03,27.67,18.02c9.94,3.86,21.3,6.5,37.93,7.26
	c16.67,0.76,21.99,0.94,64.42,0.94s47.76-0.18,64.42-0.94c16.63-0.76,27.99-3.4,37.93-7.26c10.27-3.99,18.99-9.34,27.68-18.02
	c8.69-8.69,14.03-17.4,18.02-27.68c3.86-9.94,6.5-21.3,7.26-37.93c0.76-16.67,0.94-21.99,0.94-64.42s-0.18-47.76-0.94-64.42
	c-0.76-16.63-3.4-27.99-7.26-37.93c-3.99-10.27-9.34-18.99-18.02-27.67c-8.69-8.69-17.4-14.03-27.68-18.02
	c-9.94-3.86-21.3-6.5-37.93-7.26C297.76,93.93,292.43,93.75,250,93.75z M250,121.9c41.72,0,46.66,0.16,63.14,0.91
	c15.23,0.7,23.51,3.24,29.01,5.38c7.29,2.83,12.5,6.22,17.97,11.69c5.47,5.47,8.85,10.67,11.69,17.97
	c2.14,5.51,4.69,13.78,5.38,29.01c0.75,16.48,0.91,21.42,0.91,63.14s-0.16,46.66-0.91,63.14c-0.69,15.23-3.24,23.51-5.38,29.01
	c-2.83,7.29-6.22,12.5-11.69,17.97c-5.47,5.47-10.67,8.85-17.97,11.69c-5.51,2.14-13.78,4.69-29.01,5.38
	c-16.47,0.75-21.42,0.91-63.14,0.91s-46.66-0.16-63.14-0.91c-15.23-0.69-23.51-3.24-29.01-5.38c-7.29-2.83-12.5-6.22-17.97-11.69
	c-5.47-5.47-8.85-10.67-11.69-17.97c-2.14-5.51-4.69-13.78-5.38-29.01c-0.75-16.48-0.91-21.42-0.91-63.14s0.16-46.66,0.91-63.14
	c0.7-15.23,3.24-23.51,5.38-29.01c2.83-7.29,6.22-12.5,11.69-17.97c5.47-5.47,10.67-8.85,17.97-11.69
	c5.51-2.14,13.78-4.68,29.01-5.38C203.34,122.06,208.28,121.9,250,121.9z M250,169.76c-44.31,0-80.24,35.92-80.24,80.24
	s35.92,80.24,80.24,80.24s80.24-35.92,80.24-80.24S294.31,169.76,250,169.76L250,169.76z M250,302.08
	c-28.76,0-52.08-23.32-52.08-52.08c0-28.76,23.32-52.08,52.08-52.08s52.08,23.32,52.08,52.08S278.76,302.08,250,302.08z
	 M352.16,166.59c0,10.36-8.4,18.75-18.75,18.75c-10.35,0-18.75-8.39-18.75-18.75c0-10.36,8.39-18.75,18.75-18.75
	C343.76,147.84,352.16,156.24,352.16,166.59z"/>
</svg>
