<?xml version="1.0" encoding="utf-8"?>
<!-- Generator: Adobe Illustrator 26.2.1, SVG Export Plug-In . SVG Version: 6.00 Build 0)  -->
<svg version="1.1" id="Layer_1" xmlns="http://www.w3.org/2000/svg" xmlns:xlink="http://www.w3.org/1999/xlink" x="0px" y="0px"
	 viewBox="0 0 500 500" style="enable-background:new 0 0 500 500;" xml:space="preserve">
<style type="text/css">
	.st0{fill:#C596FF;}
	.st1{fill:#FFFFFF;}
</style>
<g>
	<circle class="st0" cx="250" cy="250" r="250"/>
	<g id="LinkedIn_1_">
		<rect x="101.6" y="190.1" class="st1" width="60.9" height="193"/>
		<path class="st1" d="M328.9,188.2c-34.9,0-56.8,18.9-60.8,32.1v-30.3h-68.4c0.9,16.1,0,193,0,193h68.4V278.6
			c0-5.8-0.3-11.6,1.5-15.8c4.7-11.6,14.8-23.6,33-23.6c23.8,0,34.5,17.9,34.5,44V383h69.1V275.7C406.2,216,372.2,188.2,328.9,188.2
			z"/>
		<path class="st1" d="M131,99c-22.5,0-37.2,14.4-37.2,33.5c0,18.7,14.3,33.5,36.3,33.5h0.4c22.9,0,37.2-14.8,37.2-33.5
			C167.2,113.4,153.4,99,131,99z"/>
	</g>
</g>
</svg>
