<?xml version="1.0" encoding="utf-8"?>
<!-- Generator: Adobe Illustrator 26.2.1, SVG Export Plug-In . SVG Version: 6.00 Build 0)  -->
<svg version="1.1" id="Layer_1" xmlns="http://www.w3.org/2000/svg" xmlns:xlink="http://www.w3.org/1999/xlink" x="0px" y="0px"
	 viewBox="0 0 500 500" style="enable-background:new 0 0 500 500;" xml:space="preserve">
<style type="text/css">
	.st0{fill-rule:evenodd;clip-rule:evenodd;fill:#C596FF;}
</style>
<path class="st0" d="M250,0c137.98,0,250,112.02,250,250S387.98,500,250,500S0,387.98,0,250S112.02,0,250,0z M280.31,226.12
	L396.85,94h-27.61L268,208.7L187.21,94H94l122.2,173.46L94,406h27.61l106.84-121.15L313.79,406H407L280.31,226.12z M242.4,268.81
	l-12.25-17.13l-97.32-136.17h41.9l78.57,109.93l12.2,17.13l102.1,142.9h-41.9L242.4,268.81z"/>
</svg>
