<?xml version="1.0" encoding="utf-8"?>
<!-- Generator: Adobe Illustrator 26.2.1, SVG Export Plug-In . SVG Version: 6.00 Build 0)  -->
<svg version="1.1" id="Layer_1" xmlns="http://www.w3.org/2000/svg" xmlns:xlink="http://www.w3.org/1999/xlink" x="0px" y="0px"
	 viewBox="0 0 500 500" style="enable-background:new 0 0 500 500;" xml:space="preserve">
<style type="text/css">
	.st0{fill-rule:evenodd;clip-rule:evenodd;fill:#C596FF;}
</style>
<g>
	<path class="st0" d="M250,0C111.94,0,0,114.74,0,256.38c0,113.29,71.65,209.27,170.98,243.2c12.5,2.34,17.08-5.58,17.08-12.39
		c0-6.14-0.22-22.21-0.33-43.64c-69.53,15.51-84.26-34.38-84.26-34.38c-11.38-29.58-27.79-37.5-27.79-37.5
		c-22.66-15.96,1.67-15.63,1.67-15.63c25.11,1.79,38.28,26.45,38.28,26.45c22.32,39.18,58.48,27.9,72.77,21.32
		c2.23-16.52,8.71-27.9,15.85-34.27C148.77,363.08,90.4,341.09,90.4,242.87c0-28.01,9.71-50.9,25.67-68.75
		c-2.57-6.47-11.16-32.59,2.46-67.86c0,0,20.98-6.92,68.75,26.23c19.98-5.69,41.29-8.48,62.61-8.59c21.21,0.11,42.63,2.9,62.61,8.59
		c47.77-33.15,68.64-26.23,68.64-26.23c13.62,35.27,5.02,61.39,2.46,67.86c15.96,17.97,25.67,40.85,25.67,68.75
		c0,98.44-58.48,120.1-114.17,126.46c8.93,7.92,16.96,23.55,16.96,47.44c0,34.27-0.33,61.95-0.33,70.32
		c0,6.81,4.46,14.84,17.19,12.28C428.46,465.54,500,369.55,500,256.38C500,114.74,388.06,0,250,0z"/>
</g>
</svg>
